# xmcd
# 
# Track frame offsets:
#     150
#     23694
#     43702
#     68397
#     86572
#     97750
#     115562
#     138317
#     154982
#     166395
# 
# Disc length: 2453
# 
# Revision: 1
# Processed by: cddbd v1.5.2PL0 Copyright (c) Steve Scherf et al.
# Submitted via: fre:ac v1.0.17
# 
DISCID=6d09930a
DTITLE=Juan Pablito - Salsa! Salsa!
DYEAR=2000
DGENRE=Salsa
TTITLE0=Margarita
TTITLE1=La bomba
TTITLE2=No me reganes
TTITLE3=Livin' la vida loca
TTITLE4=De todo un poco
TTITLE5=Quisiera saber
TTITLE6=La paella
TTITLE7=Arrepientete chica bum
TTITLE8=Que siga el baile
TTITLE9=Spanish eyes
EXTD=YEAR: 2000
EXTT0=
EXTT1=
EXTT2=
EXTT3=
EXTT4=
EXTT5=
EXTT6=
EXTT7=
EXTT8=
EXTT9=
PLAYORDER=
